<?xml version="1.0" encoding="utf-8"?>
<!-- Generator: Adobe Illustrator 24.1.2, SVG Export Plug-In . SVG Version: 6.00 Build 0)  -->
<svg version="1.1" id="Layer_1" xmlns="http://www.w3.org/2000/svg" xmlns:xlink="http://www.w3.org/1999/xlink" x="0px" y="0px"
	 viewBox="0 0 346.21 238.98" style="enable-background:new 0 0 346.21 238.98;" xml:space="preserve">
<style type="text/css">
	.st0{fill:#B8001F;}
	.st1{fill:#384B70;}
	.st2{fill:#FCFAEE;}
	.st3{fill:#507687;}
</style>
<g>
	<g>
		<path class="st2" d="M18.26,218.88l5.87-12.84h1.34l5.87,12.84H29.9l-5.39-12.05h0.55l-5.39,12.05H18.26z M20.57,215.45l0.4-1.1
			h7.47l0.4,1.1H20.57z"/>
	</g>
	<g>
		<path class="st2" d="M45.02,218.88v-12.84h1.12L55,217.19h-0.59v-11.15h1.34v12.84h-1.12l-8.84-11.15h0.59v11.15H45.02z"/>
	</g>
	<g>
		<path class="st2" d="M73.22,218.88v-11.67h-4.51v-1.18h10.38v1.18h-4.51v11.67H73.22z"/>
	</g>
	<g>
		<path class="st2" d="M98.13,218.99c-0.97,0-1.86-0.16-2.69-0.49c-0.83-0.32-1.54-0.78-2.15-1.38c-0.61-0.59-1.08-1.28-1.41-2.07
			c-0.34-0.79-0.5-1.65-0.5-2.6c0-0.94,0.17-1.81,0.5-2.6c0.34-0.79,0.81-1.48,1.41-2.07c0.61-0.59,1.32-1.05,2.14-1.38
			c0.82-0.32,1.72-0.49,2.7-0.49c0.97,0,1.86,0.16,2.68,0.49c0.82,0.32,1.53,0.78,2.14,1.37s1.08,1.28,1.41,2.07
			c0.34,0.8,0.5,1.66,0.5,2.61c0,0.94-0.17,1.81-0.5,2.6c-0.34,0.8-0.81,1.49-1.41,2.07c-0.61,0.59-1.32,1.04-2.14,1.37
			C99.99,218.83,99.1,218.99,98.13,218.99z M98.13,217.78c0.77,0,1.48-0.13,2.14-0.4c0.65-0.26,1.22-0.64,1.71-1.12
			c0.48-0.48,0.86-1.05,1.13-1.69c0.27-0.64,0.4-1.35,0.4-2.12c0-0.77-0.13-1.48-0.4-2.12c-0.27-0.64-0.64-1.2-1.13-1.69
			c-0.48-0.48-1.05-0.86-1.71-1.12c-0.65-0.26-1.37-0.39-2.14-0.39c-0.77,0-1.49,0.13-2.15,0.39c-0.66,0.26-1.23,0.64-1.72,1.12
			c-0.49,0.48-0.87,1.04-1.14,1.69c-0.27,0.64-0.4,1.35-0.4,2.12c0,0.76,0.13,1.46,0.4,2.11c0.27,0.65,0.65,1.21,1.14,1.7
			s1.06,0.86,1.72,1.12C96.65,217.65,97.36,217.78,98.13,217.78z"/>
	</g>
	<g>
		<path class="st2" d="M118.55,218.88v-12.84h1.12l8.86,11.15h-0.59v-11.15h1.34v12.84h-1.12l-8.84-11.15h0.59v11.15H118.55z"/>
	</g>
	<g>
		<path class="st2" d="M144.25,218.88v-12.84h1.36v12.84H144.25z"/>
	</g>
	<g>
		<path class="st2" d="M166.58,218.99c-0.97,0-1.86-0.16-2.69-0.49c-0.83-0.32-1.54-0.78-2.15-1.38c-0.61-0.59-1.08-1.28-1.41-2.07
			c-0.34-0.79-0.5-1.65-0.5-2.6c0-0.94,0.17-1.81,0.5-2.6c0.34-0.79,0.81-1.48,1.41-2.07c0.61-0.59,1.32-1.05,2.14-1.38
			c0.82-0.32,1.72-0.49,2.7-0.49c0.97,0,1.86,0.16,2.68,0.49c0.82,0.32,1.53,0.78,2.14,1.37c0.61,0.59,1.08,1.28,1.41,2.07
			c0.34,0.8,0.5,1.66,0.5,2.61c0,0.94-0.17,1.81-0.5,2.6c-0.34,0.8-0.81,1.49-1.41,2.07c-0.61,0.59-1.32,1.04-2.14,1.37
			C168.44,218.83,167.55,218.99,166.58,218.99z M166.58,217.78c0.77,0,1.48-0.13,2.14-0.4c0.65-0.26,1.22-0.64,1.71-1.12
			s0.86-1.05,1.13-1.69c0.27-0.64,0.4-1.35,0.4-2.12c0-0.77-0.13-1.48-0.4-2.12c-0.27-0.64-0.65-1.2-1.13-1.69
			c-0.48-0.48-1.05-0.86-1.71-1.12c-0.65-0.26-1.37-0.39-2.14-0.39c-0.77,0-1.49,0.13-2.15,0.39c-0.66,0.26-1.23,0.64-1.72,1.12
			c-0.49,0.48-0.87,1.04-1.14,1.69c-0.27,0.64-0.4,1.35-0.4,2.12c0,0.76,0.13,1.46,0.4,2.11c0.27,0.65,0.65,1.21,1.14,1.7
			c0.49,0.48,1.06,0.86,1.72,1.12C165.1,217.65,165.81,217.78,166.58,217.78z"/>
	</g>
	<g>
		<g>
			<path class="st0" d="M198.19,46h28.44v103.14h46.26v25.79h-74.7V46z"/>
		</g>
		<g>
			<path class="st1" d="M168.1,162.93l1.24-28.72l-47.39-19.29l-19.17,21.42l-29.46-11.99L174.47,20.48l23.24,9.46l-0.15,144.98
				L168.1,162.93z M172.74,57.75l-33.76,37.87l31.47,12.81L172.74,57.75z"/>
		</g>
	</g>
	<g>
		<path class="st3" d="M201.4,218.88v-12.84h1.36v11.67h7.19v1.17H201.4z"/>
	</g>
	<g>
		<path class="st3" d="M223.73,217.71h7.72v1.17h-9.08v-12.84h8.81v1.18h-7.45V217.71z M223.59,211.78h6.79v1.16h-6.79V211.78z"/>
	</g>
	<g>
		<path class="st3" d="M249.13,218.99c-0.95,0-1.87-0.16-2.74-0.47c-0.87-0.31-1.55-0.71-2.03-1.2l0.53-1.05
			c0.45,0.44,1.06,0.81,1.82,1.11c0.76,0.3,1.57,0.45,2.41,0.45c0.81,0,1.46-0.1,1.97-0.3c0.51-0.2,0.88-0.47,1.12-0.82
			c0.24-0.34,0.36-0.72,0.36-1.14c0-0.5-0.14-0.91-0.43-1.21c-0.29-0.31-0.66-0.55-1.13-0.73c-0.46-0.18-0.98-0.33-1.54-0.47
			c-0.56-0.13-1.13-0.28-1.69-0.43c-0.56-0.15-1.08-0.36-1.55-0.61c-0.47-0.26-0.85-0.6-1.14-1.02c-0.29-0.42-0.43-0.98-0.43-1.66
			c0-0.64,0.17-1.22,0.5-1.75c0.34-0.53,0.85-0.96,1.55-1.28c0.7-0.32,1.59-0.49,2.68-0.49c0.72,0,1.44,0.1,2.15,0.3
			c0.71,0.2,1.32,0.48,1.83,0.83l-0.46,1.08c-0.55-0.37-1.14-0.64-1.75-0.81c-0.62-0.17-1.21-0.26-1.79-0.26
			c-0.77,0-1.41,0.1-1.91,0.31c-0.5,0.21-0.87,0.49-1.11,0.83c-0.24,0.35-0.36,0.74-0.36,1.18c0,0.5,0.14,0.9,0.43,1.21
			c0.29,0.3,0.67,0.54,1.14,0.71c0.47,0.17,0.99,0.32,1.55,0.46c0.56,0.13,1.12,0.28,1.68,0.44c0.56,0.16,1.07,0.36,1.54,0.62
			c0.47,0.25,0.85,0.58,1.14,1c0.29,0.42,0.43,0.96,0.43,1.63c0,0.62-0.17,1.2-0.51,1.73c-0.34,0.53-0.86,0.96-1.57,1.28
			C251.13,218.83,250.23,218.99,249.13,218.99z"/>
	</g>
	<g>
		<path class="st3" d="M268.17,218.88v-12.84h1.36v12.84H268.17z M269.34,215.69l-0.05-1.65l7.78-8h1.56l-5.67,5.94l-0.77,0.83
			L269.34,215.69z M277.4,218.88l-5.54-6.38l0.92-0.99l6.24,7.37H277.4z"/>
	</g>
	<g>
		<path class="st3" d="M297.69,218.99c-1.64,0-2.93-0.47-3.87-1.41c-0.94-0.94-1.41-2.34-1.41-4.18v-7.36h1.36v7.3
			c0,1.52,0.34,2.64,1.03,3.36c0.68,0.72,1.65,1.08,2.9,1.08c1.26,0,2.23-0.36,2.92-1.08c0.68-0.72,1.03-1.84,1.03-3.36v-7.3h1.32
			v7.36c0,1.85-0.47,3.24-1.4,4.18C300.61,218.52,299.33,218.99,297.69,218.99z"/>
	</g>
	<g>
		<path class="st3" d="M317.7,218.88v-12.84h4.81c1.09,0,2.02,0.17,2.81,0.52c0.78,0.35,1.38,0.85,1.81,1.5
			c0.42,0.65,0.63,1.45,0.63,2.38c0,0.91-0.21,1.69-0.63,2.34c-0.42,0.65-1.02,1.16-1.81,1.5c-0.78,0.35-1.72,0.52-2.81,0.52h-4.05
			l0.61-0.62v4.7H317.7z M319.06,214.3l-0.61-0.64h4.02c1.28,0,2.26-0.28,2.93-0.84c0.67-0.56,1-1.35,1-2.37
			c0-1.03-0.33-1.82-1-2.38c-0.67-0.56-1.64-0.84-2.93-0.84h-4.02l0.61-0.64V214.3z M326.47,218.88l-3.3-4.66h1.47l3.32,4.66H326.47
			z"/>
	</g>
</g>
</svg>
